<?xml version="1.0" encoding="utf-8"?>
<!-- Generator: Adobe Illustrator 24.2.0, SVG Export Plug-In . SVG Version: 6.00 Build 0)  -->
<svg version="1.0" id="Layer_1" xmlns="http://www.w3.org/2000/svg" xmlns:xlink="http://www.w3.org/1999/xlink" x="0px" y="0px"
	 viewBox="0 0 300 280" enable-background="new 0 0 300 280" xml:space="preserve">
<g>
	<path fill="#FDC113" d="M240.9,96.97l-21.63,21.2c5.43,5.68,8.74,13.38,8.74,21.83c0,17.52-14.19,31.71-31.71,31.71
		c-8.69,0-16.58-3.5-22.3-9.17l-21.62,21.19c11.23,11.28,26.76,18.26,43.93,18.26c34.24,0,61.98-27.75,61.98-61.98
		C258.27,123.29,251.66,108.12,240.9,96.97z"/>
	<path fill="#FFD839" d="M240.9,96.97l-21.63,21.2c-5.76-6.08-13.93-9.88-22.98-9.88c-17.51,0-31.7,14.21-31.7,31.71
		c0,8.81,3.59,16.79,9.4,22.54l-21.62,21.19c-11.15-11.21-18.04-26.67-18.04-43.72c0-34.23,27.74-61.98,61.97-61.98
		C213.81,78.02,229.63,85.29,240.9,96.97z"/>
	<path fill="#FFD839" d="M126.22,162.32c-5.75,5.81-13.71,9.4-22.53,9.4c-6.44,0-12.44-1.92-17.44-5.22l-22.44,20.96
		c10.78,9.06,24.69,14.53,39.88,14.53c15.22,0,29.16-5.48,39.94-14.59L126.22,162.32z M103.7,78.02c-15,0-28.76,5.32-39.47,14.19
		l22.48,21.02c4.91-3.13,10.74-4.94,16.99-4.94c9.05,0,17.21,3.79,22.98,9.88c0.03,0.03,0.07,0.07,0.09,0.1l17.06-25.49
		C133.01,83.58,119,78.02,103.7,78.02z"/>
	<path fill="#FDC113" d="M72,140c0-11.25,5.87-21.14,14.71-26.77L64.22,92.21c-1.95,1.62-3.79,3.34-5.54,5.18
		C48.17,108.5,41.73,123.5,41.73,140c0,15.75,5.87,30.15,15.56,41.07c0.79,0.91,1.63,1.79,2.48,2.65c1.3,1.3,2.64,2.54,4.05,3.72
		l22.44-20.96c-1.76-1.15-3.38-2.48-4.87-3.95C75.59,156.79,72,148.81,72,140z"/>
</g>
</svg>
